{"title":"Mary Kom (2014) [1CD] DVDSCR Rip Xvid Mp3 TeamTNT Exclusive","uid":10987407,"size":733761109,"categoryP":"video","categoryS":"movies","magnet":"?xt=urn:btih:515bcc435f6a3e9487b38ff2d0f0a225c3b4a37e&amp;dn=Mary+Kom+%282014%29+%5B1CD%5D+DVDSCR+Rip+Xvid+Mp3+TeamTNT+Exclusive&amp;tr=udp%3A%2F%2Ftracker.openbittorrent.com%3A80&amp;tr=udp%3A%2F%2Fopen.demonii.com%3A1337&amp;tr=udp%3A%2F%2Ftracker.coppersurfer.tk%3A6969&amp;tr=udp%3A%2F%2Fexodus.desync.com%3A6969","seeders":8,"leechers":0,"uploader":"inovai","files":20,"time":1409937933,"description":"Mary Kom (2014) [1CD] DVDSCR Rip Xvid Mp3 TEAMTNT Exclusive\n\nCover:\n &lt;a href=&quot;\nhttp://forum.primetimeshow.in/viewtopic.php?f=7&amp;t=589&quot; rel=&quot;nofollow&quot; target=&quot;_NEW&quot;&gt;\nhttp://forum.primetimeshow.in/viewtopic.php?f=7&amp;t=589&lt;/a&gt;\n\nScreenshots:\n &lt;a href=&quot;\nhttp://img.primetimeshow.in/share.php?id=DEC7_5409D4F8&quot; rel=&quot;nofollow&quot; target=&quot;_NEW&quot;&gt;\nhttp://img.primetimeshow.in/share.php?id=DEC7_5409D4F8&lt;/a&gt;\n &lt;a href=&quot;\nhttp://img.primetimeshow.in/share.php?id=8B25_5409D4F8&quot; rel=&quot;nofollow&quot; target=&quot;_NEW&quot;&gt;\nhttp://img.primetimeshow.in/share.php?id=8B25_5409D4F8&lt;/a&gt;\n &lt;a href=&quot;\nhttp://img.primetimeshow.in/share.php?id=F824_5409D4F8&quot; rel=&quot;nofollow&quot; target=&quot;_NEW&quot;&gt;\nhttp://img.primetimeshow.in/share.php?id=F824_5409D4F8&lt;/a&gt;\n &lt;a href=&quot;\nhttp://img.primetimeshow.in/share.php?id=1479_5409D4F8&quot; rel=&quot;nofollow&quot; target=&quot;_NEW&quot;&gt;\nhttp://img.primetimeshow.in/share.php?id=1479_5409D4F8&lt;/a&gt;\n &lt;a href=&quot;\nhttp://img.primetimeshow.in/share.php?id=FF00_5409D4F8&quot; rel=&quot;nofollow&quot; target=&quot;_NEW&quot;&gt;\nhttp://img.primetimeshow.in/share.php?id=FF00_5409D4F8&lt;/a&gt;\n\nMovie:............Mary Kom\nSource: ..........DVDSCR @ TeamTNT\nYear:.............2014[/color]\nSub:..............\n\nGeneral\nComplete name : C:Mary Kom.avi\nFormat : AVI\nFormat/Info : Audio Video Interleave\nFile size : 694 MiB\nDuration : 2h 0mn\nOverall bit rate : 807 Kbps\n\nVideo\nID : 0\nFormat : MPEG-4 Visual\nFormat profile : Advanced Simple@L5\nFormat settings, BVOP : 2\nFormat settings, QPel : No\nFormat settings, GMC : No warppoints\nFormat settings, Matrix : Default (H.263)\nCodec ID : XVID\nCodec ID/Hint : XviD\nDuration : 2h 0mn\nBit rate : 703 Kbps\nWidth : 640 pixels\nHeight : 272 pixels\nDisplay aspect ratio : 2.35:1\nFrame rate : 29.970 fps\nColor space : YUV\nChroma subsampling : 4:2:0\nBit depth : 8 bits\nScan type : Progressive\nCompression mode : Lossy\nBits/(Pixel*Frame) : 0.135\nStream size : 605 MiB (87%)\nWriting library : XviD 1.2.1 (UTC 2008-12-04)\n\nAudio\nID : 1\nFormat : MPEG Audio\nFormat version : Version 1\nFormat profile : Layer 3\nMode : Joint stereo\nMode extension : MS Stereo\nCodec ID : 55\nCodec ID/Hint : MP3\nDuration : 2h 0mn\nBit rate mode : Constant\nBit rate : 96.0 Kbps\nChannel(s) : 2 channels\nSampling rate : 32.0 KHz\nCompression mode : Lossy\nStream size : 82.6 MiB (12%)\nAlignment : Aligned on interleaves\nInterleave, duration : 133 ms (4.00 video frames)\nInterleave, preload duration : 216 ms\nTitle : Mary Kom T01 2_0ch 192Kbps DELAY 0ms_new\nWriting library : LAME3.99r\nEncoding settings : -m j -V 4 -q 2 -lowpass 15.1 -b 96\n\nThanks to TEAMTNT!!\n\nSeed n Enjoy!!","torrent":{"xt":"urn:btih:515bcc435f6a3e9487b38ff2d0f0a225c3b4a37e","amp;dn":"Mary+Kom+%282014%29+%5B1CD%5D+DVDSCR+Rip+Xvid+Mp3+TeamTNT+Exclusive","amp;tr":["udp%3A%2F%2Ftracker.openbittorrent.com%3A80","udp%3A%2F%2Fopen.demonii.com%3A1337","udp%3A%2F%2Ftracker.coppersurfer.tk%3A6969","udp%3A%2F%2Fexodus.desync.com%3A6969"],"infoHash":"515bcc435f6a3e9487b38ff2d0f0a225c3b4a37e","infoHashBuffer":{"type":"Buffer","data":[81,91,204,67,95,106,62,148,135,179,143,242,208,240,162,37,195,180,163,126]},"announce":[],"urlList":[]}}